<svg width="20" height="20" viewBox="0 0 20 20" fill="none" xmlns="http://www.w3.org/2000/svg">
	<path d="M1.42015 10.0011C1.4243 8.00966 2.11951 6.08146 3.38707 4.54575C3.44647 4.4738 3.49114 4.39085 3.5185 4.30164C3.54585 4.21242 3.55537 4.1187 3.54652 4.0258C3.53766 3.93291 3.5106 3.84267 3.46688 3.76024C3.42315 3.67781 3.36361 3.6048 3.29167 3.54538C3.21974 3.48596 3.13681 3.44129 3.04761 3.41393C2.95842 3.38656 2.8647 3.37704 2.77183 3.3859C2.67895 3.39476 2.58874 3.42183 2.50633 3.46556C2.42391 3.5093 2.35092 3.56884 2.29151 3.64079C1.33808 4.79556 0.655823 6.14957 0.294991 7.60305C-0.0658415 9.05654 -0.0960496 10.5725 0.206585 12.0392C0.225441 12.1307 0.262123 12.2175 0.314535 12.2948C0.366947 12.3721 0.434053 12.4382 0.512042 12.4896C0.590032 12.5409 0.677378 12.5764 0.769071 12.594C0.860764 12.6115 0.955023 12.6109 1.04646 12.592C1.1379 12.5731 1.22471 12.5365 1.30198 12.484C1.37924 12.4316 1.44542 12.3645 1.49675 12.2865C1.54807 12.2085 1.58352 12.1211 1.60109 12.0294C1.61867 11.9377 1.61801 11.8434 1.59915 11.752C1.48035 11.1759 1.42038 10.5893 1.42015 10.0011Z" fill="white" />
	<path d="M6.57274 2.13206C7.65298 1.66158 8.81893 1.41982 9.99718 1.422C11.3873 1.42302 12.7566 1.76045 13.9881 2.40546C14.0896 2.46009 14.2032 2.48848 14.3185 2.48807C14.4777 2.48892 14.6326 2.43623 14.7583 2.33848C14.8839 2.24072 14.9731 2.10357 15.0114 1.94904C15.0498 1.79452 15.0351 1.63159 14.9697 1.48643C14.9043 1.34126 14.7921 1.22228 14.6509 1.14859C13.2153 0.395246 11.6185 0.00109706 9.99718 -9.78453e-05C8.62308 -0.00313546 7.26334 0.279527 6.00429 0.829948C5.9188 0.867273 5.84148 0.921072 5.77677 0.988274C5.71206 1.05548 5.66123 1.13476 5.62716 1.22161C5.5931 1.30846 5.57649 1.40117 5.57825 1.49444C5.58002 1.58772 5.60014 1.67973 5.63746 1.76523C5.67479 1.85072 5.72858 1.92803 5.79579 1.99274C5.86299 2.05744 5.94227 2.10828 6.02912 2.14234C6.11597 2.17641 6.20868 2.19303 6.30195 2.19127C6.39522 2.1895 6.48724 2.16938 6.57274 2.13206Z" fill="white" />
	<path d="M16.2792 15.8447C15.4405 16.7467 14.4174 17.4575 13.2795 17.9287C12.1416 18.3999 10.9156 18.6205 9.68484 18.5755C8.45409 18.5306 7.24744 18.221 6.14697 17.668C5.04649 17.1149 4.07801 16.3314 3.30733 15.3706C3.24883 15.2978 3.17657 15.2373 3.0947 15.1925C3.01282 15.1478 2.92291 15.1195 2.83013 15.1095C2.73734 15.0994 2.6435 15.1078 2.55394 15.134C2.46437 15.1602 2.38083 15.2038 2.30812 15.2624C2.23541 15.3209 2.17494 15.3931 2.13015 15.475C2.08537 15.5569 2.05715 15.6468 2.0471 15.7396C2.03706 15.8324 2.04537 15.9263 2.07159 16.0159C2.09782 16.1055 2.14145 16.189 2.19995 16.2617C3.13552 17.4309 4.32253 18.3741 5.67274 19.0212C7.02294 19.6683 8.50161 20.0028 9.99883 19.9996C11.3724 19.9977 12.7309 19.7136 13.9902 19.1651C15.2495 18.6165 16.3828 17.8152 17.3197 16.8106C17.3889 16.7434 17.4437 16.6628 17.4808 16.5737C17.5179 16.4846 17.5365 16.3889 17.5355 16.2924C17.5345 16.196 17.5139 16.1007 17.475 16.0124C17.436 15.9241 17.3795 15.8447 17.3089 15.7789C17.2384 15.7131 17.1552 15.6623 17.0644 15.6297C16.9736 15.5971 16.8771 15.5832 16.7808 15.589C16.6845 15.5948 16.5904 15.6201 16.5042 15.6634C16.4179 15.7066 16.3414 15.767 16.2792 15.8407V15.8447Z" fill="white" />
	<path d="M18.162 4.22058C18.0491 4.07713 17.8853 3.98256 17.7046 3.95643C17.5239 3.9303 17.34 3.97459 17.191 4.08016C17.0421 4.18573 16.9393 4.3445 16.904 4.52368C16.8688 4.70286 16.9037 4.88874 17.0015 5.04291C17.7424 6.09194 18.2389 7.29359 18.4547 8.55965C18.6705 9.82571 18.6 11.124 18.2486 12.3593C18.197 12.5409 18.2197 12.7355 18.3115 12.9004C18.4033 13.0653 18.5569 13.1869 18.7383 13.2387C18.8022 13.2577 18.8685 13.2669 18.935 13.2662C19.0893 13.2662 19.2394 13.2158 19.3626 13.1228C19.4857 13.0298 19.5752 12.8992 19.6176 12.7508C20.0279 11.3107 20.1103 9.79686 19.8588 8.32069C19.6072 6.84451 19.0281 5.44348 18.164 4.22058H18.162Z" fill="white" />
	<path d="M9.99612 16.1311C11.2073 16.1315 12.3914 15.7726 13.3987 15.0998C14.4059 14.427 15.191 13.4706 15.6547 12.3514C16.1184 11.2323 16.2398 10.0008 16.0036 8.8126C15.7674 7.62444 15.1842 6.53303 14.3278 5.67643C13.4713 4.81983 12.3801 4.23651 11.1922 4.00027C10.0042 3.76403 8.7729 3.88548 7.65397 4.34925C6.53504 4.81302 5.57875 5.59828 4.90608 6.6057C4.23342 7.61312 3.87461 8.79744 3.875 10.0089C3.87708 11.6319 4.52264 13.1879 5.67012 14.3356C6.8176 15.4833 8.37334 16.129 9.99612 16.1311ZM9.99612 5.31095C10.926 5.31056 11.835 5.58599 12.6084 6.1024C13.3817 6.61881 13.9845 7.353 14.3407 8.21211C14.6968 9.07123 14.7901 10.0167 14.609 10.9289C14.4278 11.8411 13.9802 12.679 13.3229 13.3368C12.6655 13.9946 11.8279 14.4426 10.9159 14.6241C10.004 14.8057 9.05864 14.7127 8.19953 14.3569C7.34043 14.0011 6.60613 13.3985 6.08949 12.6252C5.57285 11.8519 5.2971 10.9428 5.2971 10.0128C5.29553 8.76456 5.78965 7.56681 6.67083 6.68288C7.55201 5.79896 8.74812 5.30123 9.99612 5.29915V5.31095Z" fill="white" />
</svg>
