<svg xmlns="http://www.w3.org/2000/svg" width="1000" height="1000" xmlns:v="https://vecta.io/nano">
	<g clip-path="url(#A)">
		<path fill="#081014" d="M0 0h1000v1000H0z" />
		<g transform="matrix(40 0 0 40 100 100)">
			<svg width="20" height="20">
				<svg width="20" height="20" fill="none">
					<g fill="#fff">
						<path d="M1.42 10.001a8.6 8.6 0 0 1 1.967-5.455.71.71 0 0 0-.096-1 .71.71 0 0 0-1 .096A10.01 10.01 0 0 0 .295 7.603c-.361 1.453-.391 2.969-.088 4.436a.71.71 0 0 0 .839.552.71.71 0 0 0 .552-.84c-.119-.576-.179-1.163-.179-1.751zm5.153-7.869c1.08-.47 2.246-.712 3.424-.71 1.39.001 2.759.338 3.991.983a.69.69 0 0 0 .33.083.71.71 0 0 0 .332-1.339A10.03 10.03 0 0 0 9.997 0a9.92 9.92 0 0 0-3.993.83.71.71 0 0 0-.367.936.71.71 0 0 0 .936.367zm9.706 13.713c-.839.902-1.862 1.613-3 2.084a8.58 8.58 0 0 1-7.133-.261 8.58 8.58 0 0 1-2.84-2.297.71.71 0 0 0-.999-.108.71.71 0 0 0-.108.999A9.96 9.96 0 0 0 9.999 20a10.03 10.03 0 0 0 7.321-3.189.71.71 0 0 0 .161-.237c.037-.089.056-.185.055-.281a.73.73 0 0 0-.06-.28.7.7 0 0 0-.166-.233.71.71 0 0 0-.245-.149.72.72 0 0 0-.284-.041.71.71 0 0 0-.502.252v.004zm1.883-11.624a.71.71 0 0 0-1.258.304.71.71 0 0 0 .098.519 8.6 8.6 0 0 1 1.453 3.517 8.61 8.61 0 0 1-.206 3.8.71.71 0 0 0 .49.879c.064.019.13.028.197.027a.71.71 0 0 0 .683-.515 10.02 10.02 0 0 0 .241-4.43 10.03 10.03 0 0 0-1.695-4.1h-.002zm-8.166 11.91a6.12 6.12 0 0 0 3.403-1.031 6.13 6.13 0 0 0 2.256-2.748c.464-1.119.585-2.351.349-3.539s-.819-2.28-1.676-3.136S12.38 4.237 11.192 4a6.12 6.12 0 0 0-3.538.349 6.13 6.13 0 0 0-2.748 2.256c-.673 1.007-1.031 2.192-1.031 3.403a6.13 6.13 0 0 0 6.121 6.122zm0-10.82a4.7 4.7 0 0 1 4.344 2.901c.356.859.449 1.805.268 2.717s-.629 1.75-1.286 2.408a4.7 4.7 0 0 1-7.233-.712c-.517-.773-.792-1.682-.792-2.612a4.71 4.71 0 0 1 1.374-3.33c.881-.884 2.077-1.382 3.325-1.384v.012z" />
					</g>
				</svg>
			</svg>
		</g>
	</g>
	<defs>
		<clipPath id="A">
			<rect width="1000" height="1000" rx="500" />
		</clipPath>
	</defs>
</svg>
